<svg xmlns="http://www.w3.org/2000/svg" version="1.1" xmlns:xlink="http://www.w3.org/1999/xlink" xmlns:svgjs="http://svgjs.dev/svgjs" width="1000" height="803" viewBox="0 0 1000 803"><g transform="matrix(1,0,0,1,0,0.2655284571491734)"><svg viewBox="0 0 448 360" data-background-color="#ffffff" preserveAspectRatio="xMidYMid meet" height="803" width="1000" xmlns="http://www.w3.org/2000/svg" xmlns:xlink="http://www.w3.org/1999/xlink"><g id="tight-bounds" transform="matrix(1,0,0,1,0,-0.11904140046539169)"><svg viewBox="0 0 448 360" height="360" width="448"><g><svg></svg></g><g><svg viewBox="0 0 448 360" height="360" width="448"><g><path transform="translate(36.9151,-7.08178) scale(0.00624,0.00624)" d="M25167 8301c221 0 400 179 400 400 0 221-179 400-400 400h-3824l-2753 2753c-156 156-409 156-566 0-156-156-156-409 0-566l2188-2188h-6475c-1847 0-3071 431-3819 1301-760 885-1068 2254-1068 4110 0 11 0 22-1 33l34 5884 2356-2356c156-156 409-156 566 0 156 156 156 409 0 566l-2915 2915c33 5746 31 11443-2 17189 4087 4041 8117 8068 12157 12154h4070c221 0 400 179 400 400 0 221-179 400-400 400h-3279l4160 4208 1-1c1313 1313 2498 2062 3660 2151 1146 87 2316-474 3622-1779l4579-4579h-3323c-221 0-400-179-400-400 0-221 179-400 400-400h4123l2666-2666c156-156 409-156 566 0 156 156 156 409 0 566l-2101 2101h6475c1847 0 3071-431 3819-1301 760-885 1068-2254 1068-4110h2l-34-5917-2568 2568c-156 156-409 156-566 0-156-156-156-409 0-566l3127-3127c-33-5746-31-11443 2-17189-4087-4041-8117-8068-12157-12154h-4193c-221 0-400-179-400-400 0-221 179-400 400-400h3402l-4141-4189c-7-6-13-12-20-18-1313-1313-2498-2062-3660-2151-1146-87-2316 474-3622 1779l-4579 4579h3024zM13737 8301h7275l5144-5144c1483-1483 2856-2116 4247-2010 1374 104 2719 934 4167 2382 8 8 15 15 22 23l4695 4749h6977c2096 0 3515 524 4425 1583 898 1045 1261 2582 1261 4629 0 13-1 25-2 37l-36 6373 4559 4508 1-1c1448 1448 2278 2792 2382 4167 106 1391-528 2764-2010 4247l-4934 4934 38 6710h2c0 2047-364 3584-1261 4629-910 1059-2329 1583-4425 1583h-7275l-5144 5144c-1483 1483-2856 2116-4247 2010-1374-104-2719-934-4167-2382l1-1-4718-4772h-6977c-2096 0-3515-524-4425-1583-898-1045-1261-2582-1261-4629h2l37-6410-4537-4485c-8-7-16-14-23-22-1448-1448-2278-2792-2382-4167-106-1391 528-2764 2010-4247l4934-4934-38-6672c-1-12-2-25-2-37 0-2047 364-3584 1261-4629 910-1059 2329-1583 4425-1583zM8141 30000l-44-7653-4374 4374c-1305 1305-1866 2476-1779 3622 88 1162 838 2348 2151 3660 6 6 13 13 18 20l3983 3937 45-7961zM8882 39860l-32 5627h2c0 1857 308 3226 1068 4110 748 871 1972 1301 3819 1301h6186l-5380-5442-5662-5597zM46264 9101h-6186l5380 5442 5662 5597 32-5594c-1-11-1-22-1-33 0-1857-308-3226-1068-4110-748-871-1972-1301-3819-1301zM51906 22039l-45 7961 44 7653 4374-4374c1305-1305 1866-2476 1779-3622-88-1163-838-2348-2151-3660l1-1-4002-3956z" fill="#c8c8c8" fill-rule="nonzero" stroke="none" stroke-width="1" stroke-linecap="butt" stroke-linejoin="miter" stroke-miterlimit="10" stroke-dasharray="" stroke-dashoffset="0" font-family="none" font-weight="none" font-size="none" text-anchor="none" style="mix-blend-mode: normal" data-fill-palette-color="tertiary"></path></g><g transform="matrix(1,0,0,1,112,103.76167683195862)"><svg viewBox="0 0 224 152.47664633608275" height="152.47664633608275" width="224"><g><svg viewBox="0 0 224 152.47664633608275" height="152.47664633608275" width="224"><g transform="matrix(1,0,0,1,0,66.68941229352956)"><svg viewBox="0 0 224 85.7872340425532" height="85.7872340425532" width="224"><g id="textblocktransform"><svg viewBox="0 0 224 85.7872340425532" height="85.7872340425532" width="224" id="textblock"><g><svg viewBox="0 0 224 85.7872340425532" height="85.7872340425532" width="224"><g transform="matrix(1,0,0,1,0,0)"><svg width="224" viewBox="1.5 -35.5 93.99 36" height="85.7872340425532" data-palette-color="#000000"><path d="M9.8 0.5L9.8 0.5Q8.35 0.5 7.1 0.15 5.85-0.2 4.83-1.15 3.8-2.1 3.05-3.93 2.3-5.75 1.9-8.72 1.5-11.7 1.5-16.05L1.5-16.05Q1.5-21.2 2.08-24.68 2.65-28.15 3.65-30.28 4.65-32.4 5.93-33.55 7.2-34.7 8.6-35.1 10-35.5 11.35-35.5L11.35-35.5Q13.2-35.5 14.23-35.08 15.25-34.65 15.65-34.02 16.05-33.4 16.05-32.75L16.05-32.75Q16.05-32.05 15.85-31.4 15.65-30.75 15.4-30.3L15.4-30.3Q15.15-30.5 14.68-30.78 14.2-31.05 13.55-31.28 12.9-31.5 12.15-31.5L12.15-31.5Q11.2-31.5 10.28-31.18 9.35-30.85 8.53-29.93 7.7-29 7.1-27.3 6.5-25.6 6.13-22.9 5.75-20.2 5.75-16.25L5.75-16.25Q5.75-12.45 6.13-10.05 6.5-7.65 7.15-6.33 7.8-5 8.72-4.5 9.65-4 10.75-4L10.75-4Q12.2-4 13.45-4.5 14.7-5 15.35-5.55L15.35-5.55Q15.6-5.05 15.8-4.4 16-3.75 16-3.1L16-3.1Q16-2.15 15.23-1.33 14.45-0.5 13.05 0 11.65 0.5 9.8 0.5ZM25.65 0.5L25.65 0.5Q24.25 0.5 22.97 0.28 21.7 0.05 20.7-0.73 19.7-1.5 19.1-3 18.5-4.5 18.5-7.1L18.5-7.1Q18.5-9.7 19.05-11.33 19.6-12.95 20.55-13.83 21.5-14.7 22.7-15 23.9-15.3 25.15-15.3L25.15-15.3Q25.95-15.3 27.02-15.15 28.1-15 28.85-14.65L28.85-14.65Q28.85-14.65 28.85-15.35 28.85-16.05 28.85-16.98 28.85-17.9 28.85-18.6L28.85-18.6Q28.85-19.8 28.47-20.43 28.1-21.05 27.42-21.33 26.75-21.6 25.75-21.6L25.75-21.6Q23.8-21.6 22-21.25 20.2-20.9 19.1-20.45L19.1-20.45Q18.75-21.05 18.65-21.68 18.55-22.3 18.55-22.8L18.55-22.8Q18.55-23.15 18.67-23.55 18.8-23.95 19.1-24.15L19.1-24.15Q19.75-24.55 21.8-25.03 23.85-25.5 26.7-25.5L26.7-25.5Q29.95-25.5 31.42-24.15 32.9-22.8 32.9-19.4L32.9-19.4 32.9-16.75Q32.9-13.9 32.87-11.03 32.85-8.15 32.8-5.63 32.75-3.1 32.6-1.2L32.6-1.2Q31.6-0.6 29.85-0.05 28.1 0.5 25.65 0.5ZM26.05-2.9L26.05-2.9Q26.85-2.9 27.6-3.15 28.35-3.4 28.65-3.75L28.65-3.75Q28.75-4.55 28.77-5.95 28.8-7.35 28.82-8.9 28.85-10.45 28.85-11.8L28.85-11.8Q28.35-12.05 27.67-12.15 27-12.25 26.5-12.25L26.5-12.25Q25.7-12.25 25.02-12.08 24.35-11.9 23.85-11.38 23.35-10.85 23.05-9.85 22.75-8.85 22.75-7.2L22.75-7.2Q22.75-5.85 22.97-5 23.2-4.15 23.65-3.68 24.1-3.2 24.7-3.05 25.3-2.9 26.05-2.9ZM37 0L37 0 37-23.25Q38.45-24.3 40.2-24.9 41.95-25.5 43.8-25.5L43.8-25.5Q45.75-25.5 46.52-24.98 47.3-24.45 47.3-23.4L47.3-23.4Q47.3-23 47.2-22.33 47.1-21.65 46.85-21L46.85-21Q46.3-21.3 45.7-21.45 45.1-21.6 44.45-21.6L44.45-21.6Q43.6-21.6 42.72-21.33 41.85-21.05 41.15-20.5L41.15-20.5 41.1-0.8Q41.1-0.4 40.92-0.25 40.75-0.1 39.9-0.05 39.05 0 37 0ZM55.89-14.2L51.44-14.2Q50.69-14.2 50.64-14.45 50.59-14.7 50.59-15.3L50.59-15.3 50.59-34.05Q50.59-34.2 50.62-34.6 50.64-35 51.19-35L51.19-35 55.84-35Q58.99-35 61.04-33.98 63.09-32.95 64.07-30.78 65.04-28.6 65.04-25.1L65.04-25.1Q65.04-22 64.32-19.93 63.59-17.85 62.32-16.6 61.04-15.35 59.39-14.78 57.74-14.2 55.89-14.2L55.89-14.2ZM50.04 0L50.04 0 50.04-34.2Q50.04-34.6 50.22-34.8 50.39-35 50.89-35L50.89-35 53.29-35Q53.89-35 53.99-34.6 54.09-34.2 54.09-34.2L54.09-34.2 54.09-0.8Q54.09-0.4 53.92-0.25 53.74-0.1 52.92-0.05 52.09 0 50.04 0ZM53.99-31.45L53.99-17.95 56.29-17.95Q57.69-17.95 58.62-18.7 59.54-19.45 60.04-21.13 60.54-22.8 60.54-25.6L60.54-25.6Q60.54-27.35 60.19-28.68 59.84-30 58.97-30.73 58.09-31.45 56.59-31.45L56.59-31.45 53.99-31.45ZM68.14 0L68.14 0 68.14-23.25Q69.59-24.3 71.34-24.9 73.09-25.5 74.94-25.5L74.94-25.5Q76.89-25.5 77.67-24.98 78.44-24.45 78.44-23.4L78.44-23.4Q78.44-23 78.34-22.33 78.24-21.65 77.99-21L77.99-21Q77.44-21.3 76.84-21.45 76.24-21.6 75.59-21.6L75.59-21.6Q74.74-21.6 73.87-21.33 72.99-21.05 72.29-20.5L72.29-20.5 72.24-0.8Q72.24-0.4 72.07-0.25 71.89-0.1 71.04-0.05 70.19 0 68.14 0ZM87.24 0.5L87.24 0.5Q85.34 0.5 83.86 0.03 82.39-0.45 81.39-1.8 80.39-3.15 79.89-5.73 79.39-8.3 79.39-12.5L79.39-12.5Q79.39-19.35 81.59-22.43 83.79-25.5 87.69-25.5L87.69-25.5Q90.34-25.5 92.06-24.4 93.79-23.3 94.64-20.5 95.49-17.7 95.49-12.65L95.49-12.65Q95.49-5.65 93.39-2.58 91.29 0.5 87.24 0.5ZM87.34-2.95L87.34-2.95Q88.44-2.95 89.26-3.73 90.09-4.5 90.59-6.6 91.09-8.7 91.09-12.6L91.09-12.6Q91.09-16.6 90.69-18.63 90.29-20.65 89.54-21.35 88.79-22.05 87.54-22.05L87.54-22.05Q86.44-22.05 85.59-21.28 84.74-20.5 84.26-18.4 83.79-16.3 83.79-12.4L83.79-12.4Q83.79-9.35 84.04-7.45 84.29-5.55 84.71-4.58 85.14-3.6 85.84-3.28 86.54-2.95 87.34-2.95Z" opacity="1" transform="matrix(1,0,0,1,0,0)" fill="#000000" class="wordmark-text-0" data-fill-palette-color="primary" id="text-0"></path></svg></g></svg></g></svg></g></svg></g><g transform="matrix(1,0,0,1,42.784000000000006,0)"><svg viewBox="0 0 138.432 46.43710522969976" height="46.43710522969976" width="138.432"><g><svg xmlns="http://www.w3.org/2000/svg" xmlns:xlink="http://www.w3.org/1999/xlink" version="1.1" x="8" y="0" viewBox="5.213373384085037 32.17 89.94461776503384 34.114999999999995" enable-background="new 0 0 100 100" xml:space="preserve" height="46.43710522969976" width="122.43199999999999" class="icon-icon-0" data-fill-palette-color="accent" id="icon-0"><g fill="#2a2aac" data-fill-palette-color="accent"><path d="M94.992 52.777c-0.021-0.09-0.084-0.16-0.18-0.217h-2.718c-0.004 0-0.008-0.002-0.012-0.002-0.967-0.037-0.905-2.167-0.823-2.739 0.233-1.639 1.692-1.986 2.125-1.586 0.242 0.223 0.156 1.508-0.145 2.619-0.143 0.526-0.337 1.034 0.47 1.065h0.587c0.514-1.712 1.549-5.881-0.616-9.116-2.214-2.907-8.888-8.793-10.959-9.325-4.188-1.075-19.607-1.306-28.679-1.306-3.403 0-6.909 0.734-6.909 0.734-2.768 0.692-12.276 5.642-16.517 9.468-11.143 1.129-21.594 3.55-23.796 6.854-0.004 0.007-1.135 2.267-1.137 2.275-0.271 0.809-0.394 1.51-0.443 2.186 0.882-0.17 1.756-0.543 2.577-1.029 0.907-0.748 0.722-1.931 1.604-2.974 0.808-0.955 2.454-1.724 3.099-1.582 0.042 0.003 0.085 0.014 0.127 0.035 0.156 0.082 0.217 0.275 0.135 0.433-0.947 1.809-4.108 5.204-7.568 5.776-0.01 1.016 0.103 2.035 0.103 3.338 0 0.104 0.041 0.205 0.113 0.279 0.965 0.992 0.99 1.957 0.991 1.994 0 0.223 0.179 0.402 0.4 0.402 0 0 3.022 0.225 5.482 0.408-0.07-0.426-0.107-0.861-0.107-1.305 0-4.471 3.637-8.107 8.107-8.107s8.107 3.637 8.107 8.107c0 0.525-0.053 1.039-0.148 1.537h41.482c-0.097-0.498-0.149-1.012-0.149-1.537 0-4.471 3.638-8.107 8.108-8.107 4.47 0 8.107 3.637 8.107 8.107 0 0.525-0.052 1.039-0.148 1.537h1.139c0.062 0 0.124-0.014 0.179-0.041l2.193-1.098c0.528-0.012 2.578-0.154 2.578-1.537 0-0.125 0.725 0.021 0.744-0.334C96.12 55.461 94.992 52.777 94.992 52.777zM82.376 42.917c-4.895 0-45.404 1.762-46.393 1.762-0.989 0-1.42-0.698-0.82-1.473 1.031-1.306 9.365-7.475 12.199-8.184 3.872-0.84 16.354-1.253 29.492 0.074 2.277 0.229 4.016 2.025 5.464 3.891C83.858 40.967 84.897 42.917 82.376 42.917z" fill="#2a2aac" data-fill-palette-color="accent"></path><circle cx="20.304" cy="59.463" r="3.4" fill="#2a2aac" data-fill-palette-color="accent"></circle><path d="M20.304 52.639c-3.769 0-6.823 3.055-6.823 6.824 0 3.768 3.055 6.822 6.823 6.822 3.768 0 6.823-3.055 6.823-6.822C27.127 55.693 24.071 52.639 20.304 52.639zM20.304 63.504c-2.229 0-4.04-1.812-4.04-4.041s1.812-4.041 4.04-4.041c2.228 0 4.041 1.812 4.041 4.041S22.531 63.504 20.304 63.504z" fill="#2a2aac" data-fill-palette-color="accent"></path><circle cx="77.716" cy="59.463" r="3.4" fill="#2a2aac" data-fill-palette-color="accent"></circle><path d="M77.704 52.639c-3.77 0-6.823 3.055-6.823 6.824 0 3.768 3.054 6.822 6.823 6.822 3.769 0 6.822-3.055 6.822-6.822C84.526 55.693 81.473 52.639 77.704 52.639zM77.716 63.504c-2.227 0-4.039-1.812-4.039-4.041s1.812-4.041 4.039-4.041c2.229 0 4.042 1.812 4.042 4.041S79.945 63.504 77.716 63.504z" fill="#2a2aac" data-fill-palette-color="accent"></path></g></svg></g></svg></g><g><rect width="42.784000000000006" height="7.736381298382979" y="37.70072393131678" x="181.216" fill="#2a2aac" data-fill-palette-color="accent"></rect><rect width="42.784000000000006" height="7.736381298382979" y="37.70072393131678" x="0" fill="#2a2aac" data-fill-palette-color="accent"></rect><rect width="42.784000000000006" height="7.736381298382979" y="22.227961334550823" x="181.216" fill="#2a2aac" data-fill-palette-color="accent"></rect><rect width="42.784000000000006" height="7.736381298382979" y="22.227961334550823" x="0" fill="#2a2aac" data-fill-palette-color="accent"></rect></g></svg></g></svg></g></svg></g><defs></defs></svg><rect width="448" height="360" fill="none" stroke="none" visibility="hidden"></rect></g></svg></g></svg>